# xmcd
#
# Track frame offsets:
#	150
#	20358
#	39393
#	53902
#	66035
#	78563
#	91677
#	102225
#	119618
#	133165
#	153125
#	168972
#	186073
#	206311
#	222775
#	240303
#	251327
#	266941
#	280882
#	292233
#	314769
#	323691
#	340978
#	357247
#	373856
#
# Disc length: 5238 seconds
#
# Revision: 0
# Processed by: cddbd v1.5.2PL0 Copyright (c) Steve Scherf et al.
# Submitted via: dBpowerAMP V4.0
#
DISCID=79147419
DTITLE=Daniel Lanois - Acadie/SHINE
DYEAR=1900
DGENRE=Blues
TTITLE0=01.Still Water
TTITLE1=02.The Maker
TTITLE2=03. O Marie
TTITLE3=04.Jolie Louise
TTITLE4=05.Fisherman's Daughter
TTITLE5=06.White Mustang II
TTITLE6=07.Under a Stormy Sky
TTITLE7=08.Where the Hawkwind Kills
TTITLE8=09.Silium's Hill
TTITLE9=10.Ice
TTITLE10=11.St.Ann's Gold
TTITLE11=12.Amazing Grace
TTITLE12=13.  I love you
TTITLE13=14.Falling at Your Feet
TTITLE14=15.As tears Roll By
TTITLE15=16.Sometimes
TTITLE16=17.Shine
TTITLE17=18.Transmitter
TTITLE18=19.San Juan
TTITLE19=20.Matador
TTITLE20=21.Space Key
TTITLE21=22.Slow Giving
TTITLE22=23.Fire
TTITLE23=24.Power of One
TTITLE24=25.JJ Leaves LA
EXTD=nm
EXTT0=
EXTT1=
EXTT2=
EXTT3=
EXTT4=
EXTT5=
EXTT6=
EXTT7=
EXTT8=
EXTT9=
EXTT10=
EXTT11=
EXTT12=
EXTT13=
EXTT14=
EXTT15=
EXTT16=
EXTT17=
EXTT18=
EXTT19=
EXTT20=
EXTT21=
EXTT22=
EXTT23=
EXTT24=
PLAYORDER=
